<svg width="256" height="256" viewBox="0 0 256 256" fill="none" xmlns="http://www.w3.org/2000/svg" role="img" aria-label="Stylized portrait of Lavoisier">
  <defs>
    <radialGradient id="bg" cx="34%" cy="22%" r="76%">
      <stop offset="0" stop-color="#F8E7BF"/>
      <stop offset="0.34" stop-color="#9B7A42"/>
      <stop offset="0.72" stop-color="#1E2A3E"/>
      <stop offset="1" stop-color="#07101F"/>
    </radialGradient>
    <linearGradient id="coin" x1="54" y1="22" x2="200" y2="232" gradientUnits="userSpaceOnUse">
      <stop stop-color="#FFE8B0"/>
      <stop offset="0.42" stop-color="#B88338"/>
      <stop offset="1" stop-color="#3B2A1A"/>
    </linearGradient>
    <linearGradient id="skin" x1="94" y1="56" x2="166" y2="156" gradientUnits="userSpaceOnUse">
      <stop stop-color="#F8DFC2"/>
      <stop offset="0.55" stop-color="#E3AF82"/>
      <stop offset="1" stop-color="#A66744"/>
    </linearGradient>
    <linearGradient id="coat" x1="74" y1="146" x2="184" y2="232" gradientUnits="userSpaceOnUse">
      <stop stop-color="#1E3A5F"/>
      <stop offset="1" stop-color="#07101F"/>
    </linearGradient>
    <filter id="softShadow" x="-20%" y="-20%" width="140%" height="150%" color-interpolation-filters="sRGB">
      <feDropShadow dx="0" dy="10" stdDeviation="10" flood-color="#020617" flood-opacity="0.45"/>
    </filter>
  </defs>

  <circle cx="128" cy="128" r="126" fill="url(#bg)"/>
  <circle cx="128" cy="128" r="117" stroke="url(#coin)" stroke-width="8" opacity="0.95"/>
  <circle cx="128" cy="128" r="104" stroke="#F8E7BF" stroke-opacity="0.16" stroke-width="1.4"/>

  <g filter="url(#softShadow)">
    <path d="M53 220c8-31 33-51 73-51s67 20 77 51H53Z" fill="url(#coat)"/>
    <path d="M92 158c11 14 61 14 72 0l-6 52H99l-7-52Z" fill="#F4D2B6"/>
    <path d="M92 174c13 10 24 16 36 16s24-6 37-16l-14 45h-46L92 174Z" fill="#F8FAFC" opacity="0.93"/>
    <path d="M77 219c7-19 18-35 31-47l20 47H77Z" fill="#12243E"/>
    <path d="M178 219c-7-19-18-35-31-47l-19 47h50Z" fill="#0B1728"/>

    <path d="M77 93c-4-34 20-58 52-58 31 0 54 22 53 54 16 11 17 33 2 48 2 23-16 37-38 35-18 20-55 14-64-12-23-3-31-32-13-48-7-7-6-15 8-19Z" fill="#E9D8B7"/>
    <path d="M67 104c-18-20-3-45 20-41 5-24 31-41 57-32 24 8 37 27 34 53-19-17-37-23-61-19-25 4-41 18-50 39Z" fill="#D8C29A"/>
    <path d="M82 95c7-24 26-38 50-38 27 0 47 17 50 43 3 27-17 55-53 55-37 0-55-29-47-60Z" fill="url(#skin)"/>
    <path d="M87 91c13-20 35-32 62-24 12 3 22 11 29 21-16-6-31-7-48-2-17 5-29 7-43 5Z" fill="#E9D8B7"/>
    <path d="M82 120c-16 1-18-23-3-28 5-2 11 3 11 13 0 8-3 13-8 15Z" fill="#D89C73"/>
    <path d="M173 119c16 0 18-23 3-27-5-2-10 3-10 13 0 8 2 13 7 14Z" fill="#C98764"/>

    <path d="M104 104c8-5 18-5 25 0" stroke="#6F422E" stroke-width="4" stroke-linecap="round"/>
    <path d="M147 104c8-5 16-4 22 1" stroke="#6F422E" stroke-width="4" stroke-linecap="round"/>
    <path d="M134 108c5 12 4 21-4 28" stroke="#9A5B3D" stroke-width="4" stroke-linecap="round"/>
    <path d="M115 142c12 8 28 8 39 0" stroke="#7B4A36" stroke-width="4" stroke-linecap="round"/>
    <circle cx="117" cy="113" r="3.2" fill="#1F2937"/>
    <circle cx="155" cy="113" r="3.2" fill="#1F2937"/>

    <path d="M84 62c11-22 35-33 61-26 27 7 43 29 39 61-9-20-25-35-52-37-20-2-34 1-48 2Z" fill="#F3E5C8" opacity="0.9"/>
    <path d="M77 84c-20 6-23 31-10 43-15 13-10 37 14 41 6 17 19 26 36 27-30 8-62-7-68-36-23-11-24-46-3-60-4-20 10-36 31-35Z" fill="#D6C099"/>
    <path d="M181 85c19 8 24 32 11 47 13 19 4 43-18 46-7 14-19 20-35 19 26 11 60-2 67-30 23-9 30-42 11-61 5-17-8-34-36-38Z" fill="#C5AB83"/>
    <path d="M88 49c-8 18 3 27 22 21 19-6 31-8 50 2-11-28-52-39-72-23Z" fill="#F8E7C5"/>
  </g>

  <path d="M54 64c15-21 35-33 61-38" stroke="#F8E7BF" stroke-opacity="0.36" stroke-width="4" stroke-linecap="round"/>
  <path d="M200 196c-11 17-27 28-49 35" stroke="#22D3EE" stroke-opacity="0.28" stroke-width="4" stroke-linecap="round"/>
</svg>
