<svg xmlns="http://www.w3.org/2000/svg" width="144" height="160" viewBox="0 0 144 160" role="img" aria-label="D reagent bottle">
  <defs>
    <radialGradient id="bg-unknown-d" cx="28%" cy="18%" r="82%">
      <stop offset="0" stop-color="#e2e8f0" stop-opacity="0.34"/>
      <stop offset="0.52" stop-color="#0f172a" stop-opacity="0.88"/>
      <stop offset="1" stop-color="#020617"/>
    </radialGradient>
    <linearGradient id="body-unknown-d" x1="35" x2="104" y1="24" y2="139" gradientUnits="userSpaceOnUse">
      <stop offset="0" stop-color="#ffffff" stop-opacity="0.72"/>
      <stop offset="0.42" stop-color="#dbeafe" stop-opacity="0.30"/>
      <stop offset="1" stop-color="#0f172a" stop-opacity="0.52"/>
    </linearGradient>
    <linearGradient id="liquid-unknown-d" x1="45" x2="102" y1="74" y2="136" gradientUnits="userSpaceOnUse">
      <stop offset="0" stop-color="#e2e8f0" stop-opacity="0.96"/>
      <stop offset="1" stop-color="#64748b" stop-opacity="0.94"/>
    </linearGradient>
    <filter id="grain-unknown-d" x="-20%" y="-20%" width="140%" height="140%">
      <feTurbulence type="fractalNoise" baseFrequency="0.9" numOctaves="2" stitchTiles="stitch"/>
      <feColorMatrix type="saturate" values="0"/>
      <feComponentTransfer><feFuncA type="table" tableValues="0 0.045"/></feComponentTransfer>
    </filter>
  </defs>
  <rect width="144" height="160" rx="28" fill="url(#bg-unknown-d)"/>
  <rect width="144" height="160" rx="28" fill="#fff" opacity="0.035" filter="url(#grain-unknown-d)"/>
  <circle cx="33" cy="26" r="34" fill="#e2e8f0" opacity="0.18"/>
  
    <ellipse cx="72" cy="141" rx="50" ry="10" fill="#020617" opacity="0.36"/>
    <path d="M47 43 C47 34 55 31 58 25 H86 C89 31 97 34 97 43 V124 C97 132 91 137 82 137 H62 C53 137 47 132 47 124 Z" fill="url(#body-unknown-d)" stroke="rgba(255,255,255,.55)" stroke-width="2"/>
    <path d="M46 74 C66 66 83 83 98 74 V124 C98 131 90 136 80 136 H64 C54 136 46 131 46 124 Z" fill="url(#liquid-unknown-d)" opacity="0.44"/>
    <rect x="50" y="17" width="44" height="16" rx="5" fill="#1f2937"/><rect x="55" y="11" width="34" height="8" rx="4" fill="#334155"/>
    <rect x="49" y="68" width="46" height="34" rx="7" fill="rgba(248,250,252,.9)"/>
    <path d="M55 48 C59 42 85 40 93 49" stroke="white" opacity=".38" stroke-width="3" stroke-linecap="round"/>
    <rect x="52" y="51" width="7" height="66" rx="3.5" fill="white" opacity=".30"/>
  
  <text x="72" y="92" text-anchor="middle" font-family="Inter, system-ui, sans-serif" font-size="13" font-weight="750" fill="#0f172a">D</text>
  <text x="72" y="109" text-anchor="middle" font-family="Inter, system-ui, sans-serif" font-size="9" font-weight="700" fill="#475569">?</text>
  <path d="M20 20 C34 8 58 7 71 10" stroke="white" stroke-width="2" stroke-linecap="round" opacity="0.28"/>
</svg>